<?xml version="1.0" encoding="UTF-8" standalone="no"?>
<!DOCTYPE svg PUBLIC "-//W3C//DTD SVG 1.1//EN" "http://www.w3.org/Graphics/SVG/1.1/DTD/svg11.dtd">
<svg width="100%" height="100%" viewBox="0 0 500 66" version="1.1" xmlns="http://www.w3.org/2000/svg" xmlns:xlink="http://www.w3.org/1999/xlink" xml:space="preserve" xmlns:serif="http://www.serif.com/" style="fill-rule:evenodd;clip-rule:evenodd;stroke-linejoin:round;stroke-miterlimit:2;">
    <g transform="matrix(1,0,0,1,0,-14.1761)">
        <g transform="matrix(1,0,0,1,0,12.5151)">
            <g transform="matrix(1.11444,0,0,1.11444,-1933.24,3.21117)">
                <path d="M1744.89,-1.391L1770.07,-1.391L1762.83,11.734C1762.5,12.092 1762.05,12.359 1761.49,12.538L1750.78,12.538C1750.31,12.739 1749.82,13.007 1749.31,13.342C1749.08,13.833 1748.9,14.368 1748.77,14.949L1748.77,40.798C1748.93,41.267 1749.15,41.758 1749.44,42.271C1749.71,42.628 1750.07,42.985 1750.51,43.343L1752.39,43.61L1753.99,43.075L1754.8,41.735C1754.93,41.155 1755.02,40.53 1755.07,39.86L1755.07,37.717L1751.45,37.583L1751.45,24.056C1752.05,23.855 1752.68,23.721 1753.32,23.654L1769.13,23.654L1769.13,42.405L1768.06,47.762L1766.85,50.977L1765.11,53.521L1764.04,54.727L1761.49,56.468L1758.41,57.673L1745.42,57.673L1742.34,56.468L1739.8,54.727L1737.79,52.316L1736.31,49.503L1734.98,44.28L1734.71,14.413L1735.64,8.788L1736.85,5.574L1738.46,3.029L1740.6,0.752L1744.89,-1.391ZM1745.56,-0.186L1742.61,1.02L1740.2,2.895L1738.46,5.172L1737.65,6.511L1736.18,11.333L1736.05,42.137L1736.45,45.887L1737.39,49.102L1738.86,51.78L1739.66,52.852L1740.73,53.923L1743.28,55.53L1744.75,56.2L1746.49,56.468L1756.81,56.468C1757.41,56.446 1758.03,56.356 1758.68,56.2L1761.63,54.995L1763.9,53.12L1764.84,52.048L1766.32,49.503L1767.65,44.548L1767.79,42.673L1767.79,24.994L1753.19,24.994C1753.01,25.016 1752.88,25.105 1752.79,25.262L1752.79,36.378L1756.14,36.378L1756.4,38.253L1756.4,40.396L1756,42.003L1755.33,43.343L1754.26,44.414L1752.65,44.95C1752.05,44.905 1751.43,44.816 1750.78,44.682C1750.36,44.526 1749.91,44.302 1749.44,44.012C1749.06,43.722 1748.7,43.365 1748.37,42.941L1747.7,41.601L1747.43,39.86L1747.43,14.949L1747.83,13.342L1748.77,12.136L1750.24,11.467L1751.98,11.199L1760.29,11.199C1760.8,11.176 1761.34,11.042 1761.89,10.797L1767.65,0.082L1766.18,-0.186L1745.56,-0.186Z" style="fill:rgb(238,217,186);fill-rule:nonzero;"/>
                <path d="M1772.84,-1.391L1786.51,-1.391L1786.77,-0.989L1786.77,43.744L1804.59,43.744C1804.41,44.325 1804.18,44.905 1803.92,45.485L1799.9,52.718C1799.65,53.231 1799.3,53.856 1798.83,54.593L1797.89,56.334C1797.62,56.981 1797.09,57.428 1796.28,57.673L1772.84,57.673L1772.84,-1.391ZM1774.18,-0.186L1774.18,56.468L1796.42,56.468L1796.68,55.798L1802.31,45.485C1801.91,45.195 1801.42,45.017 1800.84,44.95L1785.57,44.95L1785.57,-0.186L1774.18,-0.186Z" style="fill:rgb(238,217,186);fill-rule:nonzero;"/>
                <path d="M1816.88,-1.391L1829.6,-1.391C1830.11,-1.369 1830.65,-1.279 1831.2,-1.123L1832.55,-0.721L1834.82,0.618L1836.83,2.225L1838.97,5.44L1840.72,10.931L1841.12,16.02L1841.12,57.539L1828.66,57.673C1828.12,57.673 1827.59,57.584 1827.05,57.405L1827.05,35.708L1820.76,35.574L1820.76,56.066C1820.76,56.602 1820.67,57.138 1820.49,57.673L1806.7,57.673L1806.7,15.485L1807.5,9.056L1809.64,3.966L1811.25,1.957L1813.26,0.35L1816.88,-1.391ZM1817.54,-0.186L1815,0.886L1812.99,2.225L1812.05,3.029L1811.25,3.966L1809.91,6.109L1808.57,9.993L1808.04,12.94L1808.04,56.2L1809.37,56.468L1818.08,56.468C1818.5,56.468 1818.95,56.379 1819.42,56.2L1819.42,34.235L1826.92,34.235C1827.39,34.235 1827.88,34.369 1828.39,34.637L1828.39,55.396C1828.41,55.798 1828.59,56.155 1828.93,56.468L1839.38,56.468C1839.55,56.111 1839.69,55.709 1839.78,55.263L1839.78,13.743L1839.11,9.19L1838.71,7.85L1837.63,5.574L1836.97,4.502L1835.36,2.627L1834.42,1.823L1833.35,1.154L1831.07,0.082L1829.6,-0.186L1817.54,-0.186ZM1823.44,13.342L1825.45,13.743L1826.92,14.547L1827.86,15.886L1828.39,17.627L1828.39,22.315C1827.92,22.65 1827.34,22.829 1826.65,22.851L1819.69,22.851L1819.42,20.842L1819.42,18.565L1819.69,16.422L1820.49,14.949L1821.83,14.011L1823.44,13.342ZM1823.17,14.681C1822.5,14.993 1821.88,15.485 1821.29,16.154C1820.96,16.98 1820.78,17.918 1820.76,18.967L1820.76,21.645L1827.05,21.645L1827.05,17.36C1826.81,16.623 1826.36,15.953 1825.71,15.351C1824.98,14.949 1824.13,14.726 1823.17,14.681Z" style="fill:rgb(238,217,186);fill-rule:nonzero;"/>
                <path d="M1844,-1.391L1875.2,-1.391L1874.93,-0.721L1868.1,11.601C1867.97,11.868 1867.84,12.181 1867.7,12.538L1858.06,12.538L1858.06,20.842C1858.97,21.02 1859.96,21.11 1861.01,21.11L1869.71,21.11L1870.25,21.244L1865.69,29.547C1865.42,30.172 1865.07,30.842 1864.62,31.556L1863.55,33.699C1863.22,34.414 1862.63,34.905 1861.81,35.173L1858.6,35.173L1858.06,35.307L1858.06,57.673L1844,57.673L1844,-1.391ZM1845.34,-0.186L1845.34,55.932L1845.47,56.468L1856.72,56.468L1856.72,33.833L1861.67,33.833L1862.88,32.092C1863.13,31.556 1863.48,30.931 1863.95,30.217L1864.89,28.074C1865.25,27.561 1865.6,26.936 1865.96,26.199L1867.84,22.449L1856.72,22.449L1856.72,11.199L1866.63,11.199L1867.03,10.931L1868.1,8.922C1868.42,8.341 1868.73,7.672 1869.04,6.913C1869.4,6.399 1869.76,5.774 1870.11,5.038L1871.18,3.163C1871.43,2.605 1871.79,1.98 1872.26,1.288L1872.92,-0.186L1845.34,-0.186Z" style="fill:rgb(238,217,186);fill-rule:nonzero;"/>
                <path d="M1887.62,-1.391L1901.55,-1.391L1901.95,-1.123L1904.1,-0.319L1907.31,2.225C1907.78,2.716 1908.23,3.297 1908.65,3.966L1909.72,5.707L1911.2,10.127L1911.73,15.351L1911.73,41.601L1911.06,46.825L1909.45,50.977L1908.38,52.852L1907.05,54.459L1905.44,55.664C1904.92,56.066 1904.3,56.423 1903.56,56.736C1902.91,57.048 1902.2,57.316 1901.42,57.539L1887.62,57.673L1887.22,57.405L1885.08,56.602L1881.87,54.057C1881.4,53.588 1880.95,53.008 1880.53,52.316L1879.45,50.575C1879.16,49.95 1878.9,49.236 1878.65,48.432C1878.4,47.807 1878.18,47.048 1877.98,46.155L1877.45,13.342L1878.12,9.458L1878.79,7.315C1879.01,6.667 1879.32,5.998 1879.72,5.306C1879.97,4.77 1880.33,4.145 1880.79,3.431L1882.13,1.823L1883.74,0.484L1887.62,-1.391ZM1888.29,-0.186L1886.15,0.618C1885.64,0.908 1885.1,1.265 1884.54,1.689C1884.01,2.024 1883.47,2.426 1882.94,2.895L1881.6,4.368L1880.53,6.109L1879.72,7.984L1879.19,10.127C1879.01,10.842 1878.87,11.645 1878.79,12.538L1878.65,41.601L1878.92,44.548L1878.92,45.218L1879.45,47.494L1881.2,51.245L1882.4,52.852L1883.87,54.191L1885.48,55.263C1886.02,55.575 1886.69,55.843 1887.49,56.066C1888.2,56.245 1888.96,56.379 1889.77,56.468L1900.75,56.468L1902.89,55.664L1904.63,54.727L1907.45,52.048L1908.52,50.307C1908.79,49.771 1909.05,49.102 1909.32,48.298L1909.99,46.289L1910.39,43.878L1910.26,11.333L1910.12,11.065C1910.04,10.35 1909.86,9.592 1909.59,8.788L1908.92,6.779L1906.78,3.431L1905.3,2.091C1904.77,1.712 1904.19,1.355 1903.56,1.02L1901.69,0.082C1901,-0.074 1900.19,-0.163 1899.28,-0.186L1888.29,-0.186ZM1894.05,13.342C1894.68,13.409 1895.35,13.543 1896.06,13.743C1896.55,13.989 1897.04,14.301 1897.54,14.681L1898.61,16.154L1899.01,18.163L1898.88,39.191L1898.74,39.592L1897.94,41.2L1896.6,42.271L1894.86,42.807L1892.98,42.539C1892.51,42.249 1892.02,41.892 1891.51,41.467C1891.17,41.043 1890.86,40.552 1890.57,39.994L1890.04,38.119L1890.04,18.967L1890.3,16.824L1891.11,15.217L1892.45,14.011L1894.05,13.342ZM1893.79,14.681C1893.38,14.882 1892.94,15.15 1892.45,15.485L1891.64,16.824L1891.38,18.565L1891.51,39.325L1892.31,40.664L1893.52,41.467L1894.99,41.601L1895.39,41.467C1895.82,41.289 1896.26,41.066 1896.73,40.798L1897.54,39.458L1897.8,37.717L1897.8,18.833L1897.54,17.092C1897.38,16.623 1897.16,16.132 1896.87,15.618L1895.66,14.815L1893.79,14.681Z" style="fill:rgb(238,217,186);fill-rule:nonzero;"/>
                <path d="M1916.69,-1.357L1922.68,-1.357L1922.82,8.687L1916.79,8.687L1916.69,-1.357ZM1917.86,-0.018L1917.86,7.482L1921.61,7.482L1921.61,-0.018L1917.86,-0.018Z" style="fill:rgb(238,217,186);fill-rule:nonzero;"/>
                <path d="M1938.02,-1.391L1963.2,-1.391C1963.06,-1.145 1962.93,-0.833 1962.79,-0.453L1955.56,12.538L1945.52,12.538C1945.14,12.784 1944.78,13.141 1944.44,13.609L1943.91,15.083L1943.91,17.092L1944.31,18.565C1944.56,18.967 1944.87,19.369 1945.25,19.77L1948.87,20.172L1951.95,21.11L1954.49,22.583L1957.57,25.663L1958.91,28.342L1960.25,33.164L1960.65,36.78L1959.85,46.155L1957.97,52.316L1956.5,54.861L1954.36,56.87L1953.02,57.539L1928.78,57.673L1927.17,57.539L1933.6,45.619L1934.4,44.414C1934.74,44.101 1935.18,43.878 1935.74,43.744L1945.79,43.744C1946.1,43.387 1946.37,42.941 1946.59,42.405C1946.75,41.936 1946.88,41.4 1946.99,40.798L1946.99,38.789L1946.59,37.182C1946.25,36.869 1945.85,36.601 1945.38,36.378L1940.29,35.44L1937.48,34.235L1933.87,31.69L1932.12,29.414L1930.78,26.601L1929.85,23.521L1929.31,20.038L1929.18,14.145L1929.98,8.788L1930.38,7.181L1931.59,4.368L1934.13,0.752L1935.2,-0.186L1938.02,-1.391ZM1938.95,-0.186L1937.35,0.216L1936.01,0.886L1934.94,1.689L1934,2.627L1932.53,5.038L1931.45,7.716L1930.52,12.538L1930.38,18.163L1931.05,23.253L1932.53,27.538L1934.67,31.155L1936.81,32.762L1939.36,33.967L1944.04,35.039L1945.79,35.173L1946.99,35.976L1947.66,37.182L1948.06,38.789L1948.19,40.128L1948.06,40.53L1947.93,42.137L1947.39,43.61L1946.45,44.548C1945.99,44.726 1945.45,44.86 1944.85,44.95L1935.47,44.95L1935.47,45.084L1929.44,56.334L1931.05,56.468L1952.08,56.468L1953.42,55.932L1955.43,54.057L1956.9,51.78C1957.1,51.356 1957.28,50.865 1957.44,50.307L1957.97,48.968L1959.18,42.405L1959.31,40.664L1959.31,35.039L1958.78,31.69L1957.84,28.878L1956.5,26.333C1956.23,26.021 1955.96,25.663 1955.7,25.262L1954.76,24.324L1952.48,22.717L1949.8,21.645L1944.85,20.842L1943.78,19.904L1943.24,18.565L1942.84,16.958L1942.84,15.083L1943.24,13.476L1943.91,12.27C1944.2,11.98 1944.56,11.712 1944.98,11.467L1946.72,11.199L1954.36,11.199C1954.69,10.998 1955,10.73 1955.29,10.395L1960.65,0.35C1960.43,0.127 1960.16,-0.052 1959.85,-0.186L1938.95,-0.186Z" style="fill:rgb(238,217,186);fill-rule:nonzero;"/>
            </g>
            <g transform="matrix(1.11444,0,0,1.11444,-1668.06,3.21117)">
                <path d="M1743.88,-1.391L1756.61,-1.391C1757.12,-1.369 1757.65,-1.279 1758.21,-1.123L1759.55,-0.721L1761.83,0.618L1763.84,2.225L1765.98,5.44L1767.72,10.931L1768.12,16.02L1768.12,57.539L1755.67,57.673C1755.13,57.673 1754.6,57.584 1754.06,57.405L1754.06,35.708L1747.77,35.574L1747.77,56.066C1747.77,56.602 1747.68,57.138 1747.5,57.673L1733.7,57.673L1733.7,15.485L1734.51,9.056L1736.65,3.966L1738.26,1.957L1740.27,0.35L1743.88,-1.391ZM1750.18,14.681C1749.51,14.993 1748.88,15.485 1748.3,16.154C1747.97,16.98 1747.79,17.918 1747.77,18.967L1747.77,21.645L1754.06,21.645L1754.06,17.36C1753.82,16.623 1753.37,15.953 1752.72,15.351C1751.98,14.949 1751.14,14.726 1750.18,14.681Z" style="fill:rgb(238,217,186);fill-rule:nonzero;"/>
                <path d="M1778.13,-1.391L1813.23,-1.391C1812.87,-0.788 1812.51,-0.074 1812.15,0.752L1810.95,2.761C1810.64,3.364 1810.23,4.033 1809.74,4.77C1809.48,5.395 1809.12,6.065 1808.67,6.779L1806.39,10.931C1806.08,11.623 1805.59,12.159 1804.92,12.538L1798.49,12.538C1798.25,13.319 1798.11,14.212 1798.09,15.217L1798.09,57.673L1784.03,57.673L1784.03,13.074L1783.89,12.538L1770.5,12.538L1774.79,4.77C1775.14,4.167 1775.5,3.453 1775.86,2.627L1778.13,-1.391Z" style="fill:rgb(238,217,186);fill-rule:nonzero;"/>
                <path d="M1823.81,-1.391L1858.9,-1.391C1858.54,-0.788 1858.18,-0.074 1857.83,0.752L1856.62,2.761C1856.31,3.364 1855.9,4.033 1855.41,4.77C1855.15,5.395 1854.79,6.065 1854.34,6.779L1852.07,10.931C1851.75,11.623 1851.26,12.159 1850.59,12.538L1844.16,12.538C1843.92,13.319 1843.78,14.212 1843.76,15.217L1843.76,57.673L1829.7,57.673L1829.7,13.074L1829.57,12.538L1816.17,12.538L1820.46,4.77C1820.81,4.167 1821.17,3.453 1821.53,2.627L1823.81,-1.391Z" style="fill:rgb(238,217,186);fill-rule:nonzero;"/>
                <path d="M1862.01,-1.391L1875.67,-1.391C1875.85,-0.766 1875.94,-0.052 1875.94,0.752L1875.94,57.673L1862.28,57.673C1862.1,57.048 1862.01,56.334 1862.01,55.53L1862.01,-1.391Z" style="fill:rgb(238,217,186);fill-rule:nonzero;"/>
                <path d="M1878.38,-1.391L1892.04,-1.391L1892.31,-0.989L1892.31,43.744L1910.12,43.744C1909.95,44.325 1909.72,44.905 1909.45,45.485L1905.44,52.718C1905.19,53.231 1904.84,53.856 1904.37,54.593L1903.43,56.334C1903.16,56.981 1902.62,57.428 1901.82,57.673L1878.38,57.673L1878.38,-1.391Z" style="fill:rgb(238,217,186);fill-rule:nonzero;"/>
                <path d="M1921.17,-1.391L1933.9,-1.391C1934.41,-1.369 1934.95,-1.279 1935.51,-1.123L1936.85,-0.721L1939.12,0.618L1941.13,2.225L1943.27,5.44L1945.02,10.931L1945.42,16.02L1945.42,57.539L1932.96,57.673C1932.42,57.673 1931.89,57.584 1931.35,57.405L1931.35,35.708L1925.06,35.574L1925.06,56.066C1925.06,56.602 1924.97,57.138 1924.79,57.673L1911,57.673L1911,15.485L1911.8,9.056L1913.94,3.966L1915.55,1.957L1917.56,0.35L1921.17,-1.391ZM1927.47,14.681C1926.8,14.993 1926.17,15.485 1925.59,16.154C1925.26,16.98 1925.08,17.918 1925.06,18.967L1925.06,21.645L1931.35,21.645L1931.35,17.36C1931.11,16.623 1930.66,15.953 1930.01,15.351C1929.28,14.949 1928.43,14.726 1927.47,14.681Z" style="fill:rgb(238,217,186);fill-rule:nonzero;"/>
            </g>
        </g>
    </g>
</svg>
